<?xml version="1.0" encoding="utf-8"?>
<!-- Generator: Adobe Illustrator 28.1.0, SVG Export Plug-In . SVG Version: 6.00 Build 0)  -->
<svg version="1.1" id="Layer_2_00000115503173637445713640000002496900653818835612_"
	 xmlns="http://www.w3.org/2000/svg" xmlns:xlink="http://www.w3.org/1999/xlink" x="0px" y="0px" viewBox="0 0 851 118"
	 style="enable-background:new 0 0 851 118;" xml:space="preserve">
<style type="text/css">
	.st0{fill:#FFFFFF;}
	.st1{fill:none;stroke:#000000;stroke-width:2;stroke-miterlimit:10;}
</style>
<g>
	<g id="Layer_1-2">
		<path class="st0" d="M839,0H621.2c0,11.5-9.3,20.8-20.8,20.8S579.7,11.5,579.7,0H12C5.4,0,0,5.4,0,12v94c0,6.6,5.4,12,12,12h567.7
			c0-11.5,9.3-20.8,20.8-20.8s20.8,9.3,20.8,20.8H839c6.6,0,12-5.4,12-12V12C851,5.4,845.6,0,839,0L839,0z"/>
	</g>
	<line class="st1" x1="600.5" y1="20.8" x2="600.5" y2="97.2"/>
</g>
</svg>
